<?xml version="1.0" encoding="UTF-8" standalone="no"?>
<!DOCTYPE svg PUBLIC "-//W3C//DTD SVG 1.1//EN" "http://www.w3.org/Graphics/SVG/1.1/DTD/svg11.dtd">
<svg width="100%" height="100%" viewBox="0 0 805 805" version="1.1" xmlns="http://www.w3.org/2000/svg" xmlns:xlink="http://www.w3.org/1999/xlink" xml:space="preserve" xmlns:serif="http://www.serif.com/" style="fill-rule:evenodd;clip-rule:evenodd;stroke-linejoin:round;stroke-miterlimit:2;">
    <g transform="matrix(1.15527,0,0,1.15527,-56.0942,-65.2421)">
        <g transform="matrix(1.43151,0,-0.330491,0.836687,-24.5913,88.4991)">
            <g transform="matrix(513.441,0,0,513.441,194.354,591.315)">
                <path d="M0.352,-0.654L0.352,-0.532L0.213,-0.532L0.213,-0.674C0.213,-0.697 0.206,-0.708 0.191,-0.708C0.182,-0.708 0.177,-0.705 0.174,-0.7C0.171,-0.694 0.17,-0.686 0.17,-0.674L0.17,-0.461C0.189,-0.481 0.215,-0.491 0.246,-0.491C0.317,-0.491 0.352,-0.444 0.352,-0.348L0.352,-0.158C0.352,-0.122 0.35,-0.094 0.347,-0.074C0.344,-0.054 0.337,-0.039 0.326,-0.027C0.316,-0.016 0.3,-0.008 0.28,-0.003C0.259,0.002 0.23,0.004 0.194,0.004C0.145,0.004 0.109,-0 0.087,-0.008C0.064,-0.016 0.049,-0.032 0.042,-0.054C0.035,-0.076 0.031,-0.111 0.031,-0.158L0.031,-0.654C0.031,-0.702 0.034,-0.737 0.042,-0.759C0.049,-0.781 0.064,-0.796 0.086,-0.804C0.108,-0.812 0.144,-0.816 0.194,-0.816C0.241,-0.816 0.275,-0.812 0.298,-0.803C0.32,-0.794 0.335,-0.779 0.342,-0.758C0.349,-0.736 0.352,-0.701 0.352,-0.654ZM0.213,-0.338C0.213,-0.361 0.206,-0.372 0.191,-0.372C0.182,-0.372 0.176,-0.369 0.174,-0.364C0.171,-0.359 0.17,-0.35 0.17,-0.338L0.17,-0.139C0.17,-0.127 0.171,-0.119 0.174,-0.113C0.177,-0.108 0.182,-0.105 0.191,-0.105C0.2,-0.105 0.206,-0.108 0.208,-0.113C0.211,-0.118 0.213,-0.127 0.213,-0.139L0.213,-0.338Z" style="fill:rgb(190,231,255);fill-rule:nonzero;"/>
            </g>
            <g transform="matrix(513.441,0,0,513.441,375.001,591.315)">
                <path d="M0.031,-0.654C0.031,-0.691 0.032,-0.72 0.036,-0.739C0.039,-0.759 0.046,-0.774 0.057,-0.786C0.067,-0.797 0.083,-0.805 0.103,-0.81C0.123,-0.814 0.153,-0.816 0.191,-0.816C0.24,-0.816 0.276,-0.812 0.297,-0.804C0.319,-0.797 0.333,-0.782 0.341,-0.76C0.348,-0.737 0.352,-0.702 0.352,-0.654L0.352,-0.158C0.352,-0.11 0.348,-0.075 0.341,-0.053C0.334,-0.031 0.32,-0.016 0.298,-0.008C0.276,-0 0.241,0.004 0.193,0.004C0.143,0.004 0.108,0 0.086,-0.008C0.064,-0.015 0.049,-0.03 0.042,-0.052C0.035,-0.075 0.031,-0.11 0.031,-0.158L0.031,-0.654ZM0.169,-0.673L0.169,-0.139C0.169,-0.127 0.171,-0.118 0.174,-0.113C0.177,-0.108 0.183,-0.105 0.192,-0.105C0.2,-0.105 0.205,-0.108 0.208,-0.113C0.211,-0.118 0.213,-0.127 0.213,-0.139L0.213,-0.673C0.213,-0.686 0.211,-0.695 0.208,-0.7C0.205,-0.705 0.199,-0.708 0.19,-0.708C0.182,-0.708 0.177,-0.705 0.174,-0.699C0.171,-0.693 0.169,-0.685 0.169,-0.673Z" style="fill:rgb(190,231,255);fill-rule:nonzero;"/>
            </g>
        </g>
        <g transform="matrix(1.43151,0,-0.330491,0.836687,-30.6505,83.3055)">
            <g transform="matrix(513.441,0,0,513.441,194.354,591.315)">
                <path d="M0.352,-0.654L0.352,-0.532L0.213,-0.532L0.213,-0.674C0.213,-0.697 0.206,-0.708 0.191,-0.708C0.182,-0.708 0.177,-0.705 0.174,-0.7C0.171,-0.694 0.17,-0.686 0.17,-0.674L0.17,-0.461C0.189,-0.481 0.215,-0.491 0.246,-0.491C0.317,-0.491 0.352,-0.444 0.352,-0.348L0.352,-0.158C0.352,-0.122 0.35,-0.094 0.347,-0.074C0.344,-0.054 0.337,-0.039 0.326,-0.027C0.316,-0.016 0.3,-0.008 0.28,-0.003C0.259,0.002 0.23,0.004 0.194,0.004C0.145,0.004 0.109,-0 0.087,-0.008C0.064,-0.016 0.049,-0.032 0.042,-0.054C0.035,-0.076 0.031,-0.111 0.031,-0.158L0.031,-0.654C0.031,-0.702 0.034,-0.737 0.042,-0.759C0.049,-0.781 0.064,-0.796 0.086,-0.804C0.108,-0.812 0.144,-0.816 0.194,-0.816C0.241,-0.816 0.275,-0.812 0.298,-0.803C0.32,-0.794 0.335,-0.779 0.342,-0.758C0.349,-0.736 0.352,-0.701 0.352,-0.654ZM0.213,-0.338C0.213,-0.361 0.206,-0.372 0.191,-0.372C0.182,-0.372 0.176,-0.369 0.174,-0.364C0.171,-0.359 0.17,-0.35 0.17,-0.338L0.17,-0.139C0.17,-0.127 0.171,-0.119 0.174,-0.113C0.177,-0.108 0.182,-0.105 0.191,-0.105C0.2,-0.105 0.206,-0.108 0.208,-0.113C0.211,-0.118 0.213,-0.127 0.213,-0.139L0.213,-0.338Z" style="fill:rgb(227,39,45);fill-rule:nonzero;"/>
            </g>
            <g transform="matrix(513.441,0,0,513.441,375.001,591.315)">
                <path d="M0.031,-0.654C0.031,-0.691 0.032,-0.72 0.036,-0.739C0.039,-0.759 0.046,-0.774 0.057,-0.786C0.067,-0.797 0.083,-0.805 0.103,-0.81C0.123,-0.814 0.153,-0.816 0.191,-0.816C0.24,-0.816 0.276,-0.812 0.297,-0.804C0.319,-0.797 0.333,-0.782 0.341,-0.76C0.348,-0.737 0.352,-0.702 0.352,-0.654L0.352,-0.158C0.352,-0.11 0.348,-0.075 0.341,-0.053C0.334,-0.031 0.32,-0.016 0.298,-0.008C0.276,-0 0.241,0.004 0.193,0.004C0.143,0.004 0.108,0 0.086,-0.008C0.064,-0.015 0.049,-0.03 0.042,-0.052C0.035,-0.075 0.031,-0.11 0.031,-0.158L0.031,-0.654ZM0.169,-0.673L0.169,-0.139C0.169,-0.127 0.171,-0.118 0.174,-0.113C0.177,-0.108 0.183,-0.105 0.192,-0.105C0.2,-0.105 0.205,-0.108 0.208,-0.113C0.211,-0.118 0.213,-0.127 0.213,-0.139L0.213,-0.673C0.213,-0.686 0.211,-0.695 0.208,-0.7C0.205,-0.705 0.199,-0.708 0.19,-0.708C0.182,-0.708 0.177,-0.705 0.174,-0.699C0.171,-0.693 0.169,-0.685 0.169,-0.673Z" style="fill:rgb(227,39,45);fill-rule:nonzero;"/>
            </g>
        </g>
        <g transform="matrix(0.466118,0,-0.107612,0.272435,118.424,54.1048)">
            <g transform="matrix(513.441,0,0,513.441,194.354,591.315)">
                <path d="M0.096,-0.812L0.281,-0.812L0.363,-0L0.228,-0L0.218,-0.173L0.16,-0.173L0.15,-0L0.016,-0L0.096,-0.812ZM0.187,-0.651L0.165,-0.281L0.212,-0.281L0.191,-0.651L0.187,-0.651Z" style="fill:rgb(190,231,255);fill-rule:nonzero;"/>
            </g>
            <g transform="matrix(513.441,0,0,513.441,375.502,591.315)">
                <path d="M0.035,-0.812L0.174,-0.812L0.174,-0.107L0.257,-0.107L0.257,-0L0.035,-0L0.035,-0.812Z" style="fill:rgb(190,231,255);fill-rule:nonzero;"/>
            </g>
            <g transform="matrix(513.441,0,0,513.441,499.24,591.315)">
                <path d="M0.035,-0.812L0.174,-0.812L0.174,-0.107L0.257,-0.107L0.257,-0L0.035,-0L0.035,-0.812Z" style="fill:rgb(190,231,255);fill-rule:nonzero;"/>
            </g>
            <g transform="matrix(513.441,0,0,513.441,705.599,591.315)">
                <rect x="0.035" y="-0.812" width="0.139" height="0.812" style="fill:rgb(190,231,255);fill-rule:nonzero;"/>
            </g>
            <g transform="matrix(513.441,0,0,513.441,797.497,591.315)">
                <path d="M0.035,-0.812L0.159,-0.812L0.235,-0.407L0.241,-0.407L0.239,-0.812L0.359,-0.812L0.359,-0L0.236,-0L0.159,-0.416L0.153,-0.416L0.156,-0L0.035,-0L0.035,-0.812Z" style="fill:rgb(190,231,255);fill-rule:nonzero;"/>
            </g>
        </g>
        <g transform="matrix(0.466118,0,-0.107612,0.272435,114.096,50.6424)">
            <g transform="matrix(513.441,0,0,513.441,194.354,591.315)">
                <path d="M0.096,-0.812L0.281,-0.812L0.363,-0L0.228,-0L0.218,-0.173L0.16,-0.173L0.15,-0L0.016,-0L0.096,-0.812ZM0.187,-0.651L0.165,-0.281L0.212,-0.281L0.191,-0.651L0.187,-0.651Z" style="fill:white;fill-rule:nonzero;"/>
            </g>
            <g transform="matrix(513.441,0,0,513.441,375.502,591.315)">
                <path d="M0.035,-0.812L0.174,-0.812L0.174,-0.107L0.257,-0.107L0.257,-0L0.035,-0L0.035,-0.812Z" style="fill:white;fill-rule:nonzero;"/>
            </g>
            <g transform="matrix(513.441,0,0,513.441,499.24,591.315)">
                <path d="M0.035,-0.812L0.174,-0.812L0.174,-0.107L0.257,-0.107L0.257,-0L0.035,-0L0.035,-0.812Z" style="fill:white;fill-rule:nonzero;"/>
            </g>
            <g transform="matrix(513.441,0,0,513.441,705.599,591.315)">
                <rect x="0.035" y="-0.812" width="0.139" height="0.812" style="fill:white;fill-rule:nonzero;"/>
            </g>
            <g transform="matrix(513.441,0,0,513.441,797.497,591.315)">
                <path d="M0.035,-0.812L0.159,-0.812L0.235,-0.407L0.241,-0.407L0.239,-0.812L0.359,-0.812L0.359,-0L0.236,-0L0.159,-0.416L0.153,-0.416L0.156,-0L0.035,-0L0.035,-0.812Z" style="fill:white;fill-rule:nonzero;"/>
            </g>
        </g>
        <g transform="matrix(0.466118,0,-0.107612,0.272435,68.8094,553.309)">
            <g transform="matrix(513.441,0,0,513.441,194.354,591.315)">
                <path d="M0.35,-0.655L0.35,-0.532L0.212,-0.532L0.212,-0.675C0.212,-0.687 0.21,-0.696 0.207,-0.701C0.203,-0.706 0.197,-0.709 0.189,-0.709C0.176,-0.709 0.169,-0.698 0.169,-0.675L0.169,-0.549C0.169,-0.535 0.171,-0.525 0.174,-0.519C0.178,-0.512 0.187,-0.505 0.2,-0.497L0.285,-0.448C0.302,-0.438 0.316,-0.428 0.325,-0.416C0.335,-0.403 0.342,-0.39 0.345,-0.376C0.348,-0.362 0.35,-0.345 0.35,-0.325L0.35,-0.156C0.35,-0.118 0.348,-0.089 0.345,-0.07C0.342,-0.05 0.335,-0.034 0.324,-0.023C0.313,-0.012 0.298,-0.004 0.277,-0C0.256,0.004 0.227,0.006 0.189,0.006C0.152,0.006 0.124,0.004 0.104,-0.001C0.083,-0.005 0.068,-0.013 0.057,-0.024C0.046,-0.035 0.038,-0.05 0.034,-0.071C0.031,-0.092 0.029,-0.12 0.029,-0.156L0.029,-0.335L0.169,-0.335L0.169,-0.137C0.169,-0.125 0.171,-0.116 0.174,-0.111C0.178,-0.105 0.184,-0.102 0.192,-0.102C0.205,-0.102 0.212,-0.114 0.212,-0.137L0.212,-0.309C0.212,-0.323 0.21,-0.333 0.207,-0.339C0.203,-0.345 0.194,-0.352 0.181,-0.36L0.092,-0.412C0.067,-0.426 0.051,-0.444 0.042,-0.463C0.033,-0.483 0.029,-0.508 0.029,-0.539L0.029,-0.655C0.029,-0.691 0.031,-0.719 0.035,-0.74C0.039,-0.761 0.046,-0.777 0.057,-0.788C0.068,-0.799 0.084,-0.807 0.104,-0.811C0.125,-0.815 0.153,-0.817 0.19,-0.817C0.239,-0.817 0.275,-0.813 0.296,-0.805C0.318,-0.797 0.333,-0.781 0.34,-0.76C0.347,-0.738 0.35,-0.703 0.35,-0.655Z" style="fill:rgb(190,231,255);fill-rule:nonzero;"/>
            </g>
            <g transform="matrix(513.441,0,0,513.441,374.5,591.315)">
                <path d="M0.035,-0.812L0.257,-0.812L0.257,-0.706L0.174,-0.706L0.174,-0.499L0.257,-0.499L0.257,-0.392L0.174,-0.392L0.174,-0.107L0.257,-0.107L0.257,-0L0.035,-0L0.035,-0.812Z" style="fill:rgb(190,231,255);fill-rule:nonzero;"/>
            </g>
            <g transform="matrix(513.441,0,0,513.441,507.011,591.315)">
                <path d="M0.352,-0.655L0.352,-0.535L0.213,-0.535L0.213,-0.674C0.213,-0.687 0.211,-0.696 0.208,-0.701C0.205,-0.706 0.199,-0.709 0.19,-0.709C0.182,-0.709 0.177,-0.706 0.174,-0.7C0.171,-0.694 0.169,-0.686 0.169,-0.674L0.169,-0.137C0.169,-0.125 0.171,-0.116 0.174,-0.111C0.178,-0.106 0.184,-0.103 0.192,-0.103C0.2,-0.103 0.205,-0.106 0.208,-0.111C0.211,-0.116 0.213,-0.125 0.213,-0.137L0.213,-0.344L0.352,-0.344L0.352,-0.157C0.352,-0.109 0.348,-0.074 0.341,-0.052C0.334,-0.03 0.32,-0.014 0.298,-0.006C0.276,0.002 0.241,0.006 0.193,0.006C0.143,0.006 0.108,0.002 0.086,-0.006C0.064,-0.014 0.049,-0.029 0.042,-0.051C0.035,-0.074 0.031,-0.109 0.031,-0.157L0.031,-0.655C0.031,-0.693 0.032,-0.721 0.036,-0.741C0.039,-0.761 0.046,-0.777 0.057,-0.788C0.067,-0.799 0.083,-0.807 0.104,-0.811C0.124,-0.815 0.153,-0.817 0.191,-0.817C0.24,-0.817 0.275,-0.813 0.297,-0.805C0.319,-0.798 0.333,-0.783 0.341,-0.761C0.348,-0.739 0.352,-0.703 0.352,-0.655Z" style="fill:rgb(190,231,255);fill-rule:nonzero;"/>
            </g>
            <g transform="matrix(513.441,0,0,513.441,685.151,591.315)">
                <path d="M0.031,-0.655C0.031,-0.693 0.032,-0.721 0.036,-0.741C0.039,-0.761 0.046,-0.777 0.057,-0.788C0.067,-0.799 0.083,-0.807 0.104,-0.811C0.124,-0.815 0.153,-0.817 0.191,-0.817C0.24,-0.817 0.275,-0.813 0.297,-0.805C0.319,-0.798 0.333,-0.783 0.341,-0.761C0.348,-0.739 0.352,-0.703 0.352,-0.655L0.352,-0.157C0.352,-0.109 0.348,-0.074 0.341,-0.052C0.334,-0.03 0.32,-0.014 0.298,-0.006C0.276,0.002 0.241,0.006 0.193,0.006C0.143,0.006 0.108,0.002 0.086,-0.006C0.064,-0.014 0.049,-0.029 0.042,-0.051C0.035,-0.074 0.031,-0.109 0.031,-0.157L0.031,-0.655ZM0.169,-0.674L0.169,-0.137C0.169,-0.125 0.171,-0.116 0.174,-0.111C0.178,-0.106 0.184,-0.103 0.192,-0.103C0.2,-0.103 0.205,-0.106 0.208,-0.111C0.211,-0.116 0.213,-0.125 0.213,-0.137L0.213,-0.674C0.213,-0.687 0.211,-0.696 0.208,-0.701C0.205,-0.706 0.199,-0.709 0.19,-0.709C0.182,-0.709 0.177,-0.706 0.174,-0.7C0.171,-0.694 0.169,-0.686 0.169,-0.674Z" style="fill:rgb(190,231,255);fill-rule:nonzero;"/>
            </g>
            <g transform="matrix(513.441,0,0,513.441,865.798,591.315)">
                <path d="M0.035,-0.812L0.159,-0.812L0.235,-0.407L0.241,-0.407L0.239,-0.812L0.359,-0.812L0.359,-0L0.236,-0L0.159,-0.416L0.153,-0.416L0.156,-0L0.035,-0L0.035,-0.812Z" style="fill:rgb(190,231,255);fill-rule:nonzero;"/>
            </g>
            <g transform="matrix(513.441,0,0,513.441,1053.21,591.315)">
                <path d="M0.035,-0.812L0.205,-0.812C0.251,-0.812 0.285,-0.808 0.305,-0.799C0.325,-0.791 0.339,-0.776 0.346,-0.753C0.353,-0.731 0.356,-0.696 0.356,-0.647L0.356,-0.166C0.356,-0.117 0.353,-0.081 0.346,-0.059C0.34,-0.037 0.326,-0.022 0.305,-0.013C0.284,-0.004 0.251,-0 0.206,-0L0.035,-0L0.035,-0.812ZM0.174,-0.706L0.174,-0.106L0.186,-0.106C0.2,-0.106 0.209,-0.109 0.212,-0.114C0.215,-0.12 0.217,-0.131 0.217,-0.149L0.217,-0.662C0.217,-0.675 0.216,-0.685 0.215,-0.69C0.214,-0.696 0.211,-0.7 0.207,-0.702C0.202,-0.705 0.195,-0.706 0.184,-0.706L0.174,-0.706Z" style="fill:rgb(190,231,255);fill-rule:nonzero;"/>
            </g>
            <g transform="matrix(513.441,0,0,513.441,1236.62,591.315)">
                <path d="M0.35,-0.655L0.35,-0.532L0.212,-0.532L0.212,-0.675C0.212,-0.687 0.21,-0.696 0.207,-0.701C0.203,-0.706 0.197,-0.709 0.189,-0.709C0.176,-0.709 0.169,-0.698 0.169,-0.675L0.169,-0.549C0.169,-0.535 0.171,-0.525 0.174,-0.519C0.178,-0.512 0.187,-0.505 0.2,-0.497L0.285,-0.448C0.302,-0.438 0.316,-0.428 0.325,-0.416C0.335,-0.403 0.342,-0.39 0.345,-0.376C0.348,-0.362 0.35,-0.345 0.35,-0.325L0.35,-0.156C0.35,-0.118 0.348,-0.089 0.345,-0.07C0.342,-0.05 0.335,-0.034 0.324,-0.023C0.313,-0.012 0.298,-0.004 0.277,-0C0.256,0.004 0.227,0.006 0.189,0.006C0.152,0.006 0.124,0.004 0.104,-0.001C0.083,-0.005 0.068,-0.013 0.057,-0.024C0.046,-0.035 0.038,-0.05 0.034,-0.071C0.031,-0.092 0.029,-0.12 0.029,-0.156L0.029,-0.335L0.169,-0.335L0.169,-0.137C0.169,-0.125 0.171,-0.116 0.174,-0.111C0.178,-0.105 0.184,-0.102 0.192,-0.102C0.205,-0.102 0.212,-0.114 0.212,-0.137L0.212,-0.309C0.212,-0.323 0.21,-0.333 0.207,-0.339C0.203,-0.345 0.194,-0.352 0.181,-0.36L0.092,-0.412C0.067,-0.426 0.051,-0.444 0.042,-0.463C0.033,-0.483 0.029,-0.508 0.029,-0.539L0.029,-0.655C0.029,-0.691 0.031,-0.719 0.035,-0.74C0.039,-0.761 0.046,-0.777 0.057,-0.788C0.068,-0.799 0.084,-0.807 0.104,-0.811C0.125,-0.815 0.153,-0.817 0.19,-0.817C0.239,-0.817 0.275,-0.813 0.296,-0.805C0.318,-0.797 0.333,-0.781 0.34,-0.76C0.347,-0.738 0.35,-0.703 0.35,-0.655Z" style="fill:rgb(190,231,255);fill-rule:nonzero;"/>
            </g>
        </g>
        <g transform="matrix(0.466118,0,-0.107612,0.272435,64.4815,549.846)">
            <g transform="matrix(513.441,0,0,513.441,194.354,591.315)">
                <path d="M0.35,-0.655L0.35,-0.532L0.212,-0.532L0.212,-0.675C0.212,-0.687 0.21,-0.696 0.207,-0.701C0.203,-0.706 0.197,-0.709 0.189,-0.709C0.176,-0.709 0.169,-0.698 0.169,-0.675L0.169,-0.549C0.169,-0.535 0.171,-0.525 0.174,-0.519C0.178,-0.512 0.187,-0.505 0.2,-0.497L0.285,-0.448C0.302,-0.438 0.316,-0.428 0.325,-0.416C0.335,-0.403 0.342,-0.39 0.345,-0.376C0.348,-0.362 0.35,-0.345 0.35,-0.325L0.35,-0.156C0.35,-0.118 0.348,-0.089 0.345,-0.07C0.342,-0.05 0.335,-0.034 0.324,-0.023C0.313,-0.012 0.298,-0.004 0.277,-0C0.256,0.004 0.227,0.006 0.189,0.006C0.152,0.006 0.124,0.004 0.104,-0.001C0.083,-0.005 0.068,-0.013 0.057,-0.024C0.046,-0.035 0.038,-0.05 0.034,-0.071C0.031,-0.092 0.029,-0.12 0.029,-0.156L0.029,-0.335L0.169,-0.335L0.169,-0.137C0.169,-0.125 0.171,-0.116 0.174,-0.111C0.178,-0.105 0.184,-0.102 0.192,-0.102C0.205,-0.102 0.212,-0.114 0.212,-0.137L0.212,-0.309C0.212,-0.323 0.21,-0.333 0.207,-0.339C0.203,-0.345 0.194,-0.352 0.181,-0.36L0.092,-0.412C0.067,-0.426 0.051,-0.444 0.042,-0.463C0.033,-0.483 0.029,-0.508 0.029,-0.539L0.029,-0.655C0.029,-0.691 0.031,-0.719 0.035,-0.74C0.039,-0.761 0.046,-0.777 0.057,-0.788C0.068,-0.799 0.084,-0.807 0.104,-0.811C0.125,-0.815 0.153,-0.817 0.19,-0.817C0.239,-0.817 0.275,-0.813 0.296,-0.805C0.318,-0.797 0.333,-0.781 0.34,-0.76C0.347,-0.738 0.35,-0.703 0.35,-0.655Z" style="fill:white;fill-rule:nonzero;"/>
            </g>
            <g transform="matrix(513.441,0,0,513.441,374.5,591.315)">
                <path d="M0.035,-0.812L0.257,-0.812L0.257,-0.706L0.174,-0.706L0.174,-0.499L0.257,-0.499L0.257,-0.392L0.174,-0.392L0.174,-0.107L0.257,-0.107L0.257,-0L0.035,-0L0.035,-0.812Z" style="fill:white;fill-rule:nonzero;"/>
            </g>
            <g transform="matrix(513.441,0,0,513.441,507.011,591.315)">
                <path d="M0.352,-0.655L0.352,-0.535L0.213,-0.535L0.213,-0.674C0.213,-0.687 0.211,-0.696 0.208,-0.701C0.205,-0.706 0.199,-0.709 0.19,-0.709C0.182,-0.709 0.177,-0.706 0.174,-0.7C0.171,-0.694 0.169,-0.686 0.169,-0.674L0.169,-0.137C0.169,-0.125 0.171,-0.116 0.174,-0.111C0.178,-0.106 0.184,-0.103 0.192,-0.103C0.2,-0.103 0.205,-0.106 0.208,-0.111C0.211,-0.116 0.213,-0.125 0.213,-0.137L0.213,-0.344L0.352,-0.344L0.352,-0.157C0.352,-0.109 0.348,-0.074 0.341,-0.052C0.334,-0.03 0.32,-0.014 0.298,-0.006C0.276,0.002 0.241,0.006 0.193,0.006C0.143,0.006 0.108,0.002 0.086,-0.006C0.064,-0.014 0.049,-0.029 0.042,-0.051C0.035,-0.074 0.031,-0.109 0.031,-0.157L0.031,-0.655C0.031,-0.693 0.032,-0.721 0.036,-0.741C0.039,-0.761 0.046,-0.777 0.057,-0.788C0.067,-0.799 0.083,-0.807 0.104,-0.811C0.124,-0.815 0.153,-0.817 0.191,-0.817C0.24,-0.817 0.275,-0.813 0.297,-0.805C0.319,-0.798 0.333,-0.783 0.341,-0.761C0.348,-0.739 0.352,-0.703 0.352,-0.655Z" style="fill:white;fill-rule:nonzero;"/>
            </g>
            <g transform="matrix(513.441,0,0,513.441,685.151,591.315)">
                <path d="M0.031,-0.655C0.031,-0.693 0.032,-0.721 0.036,-0.741C0.039,-0.761 0.046,-0.777 0.057,-0.788C0.067,-0.799 0.083,-0.807 0.104,-0.811C0.124,-0.815 0.153,-0.817 0.191,-0.817C0.24,-0.817 0.275,-0.813 0.297,-0.805C0.319,-0.798 0.333,-0.783 0.341,-0.761C0.348,-0.739 0.352,-0.703 0.352,-0.655L0.352,-0.157C0.352,-0.109 0.348,-0.074 0.341,-0.052C0.334,-0.03 0.32,-0.014 0.298,-0.006C0.276,0.002 0.241,0.006 0.193,0.006C0.143,0.006 0.108,0.002 0.086,-0.006C0.064,-0.014 0.049,-0.029 0.042,-0.051C0.035,-0.074 0.031,-0.109 0.031,-0.157L0.031,-0.655ZM0.169,-0.674L0.169,-0.137C0.169,-0.125 0.171,-0.116 0.174,-0.111C0.178,-0.106 0.184,-0.103 0.192,-0.103C0.2,-0.103 0.205,-0.106 0.208,-0.111C0.211,-0.116 0.213,-0.125 0.213,-0.137L0.213,-0.674C0.213,-0.687 0.211,-0.696 0.208,-0.701C0.205,-0.706 0.199,-0.709 0.19,-0.709C0.182,-0.709 0.177,-0.706 0.174,-0.7C0.171,-0.694 0.169,-0.686 0.169,-0.674Z" style="fill:white;fill-rule:nonzero;"/>
            </g>
            <g transform="matrix(513.441,0,0,513.441,865.798,591.315)">
                <path d="M0.035,-0.812L0.159,-0.812L0.235,-0.407L0.241,-0.407L0.239,-0.812L0.359,-0.812L0.359,-0L0.236,-0L0.159,-0.416L0.153,-0.416L0.156,-0L0.035,-0L0.035,-0.812Z" style="fill:white;fill-rule:nonzero;"/>
            </g>
            <g transform="matrix(513.441,0,0,513.441,1053.21,591.315)">
                <path d="M0.035,-0.812L0.205,-0.812C0.251,-0.812 0.285,-0.808 0.305,-0.799C0.325,-0.791 0.339,-0.776 0.346,-0.753C0.353,-0.731 0.356,-0.696 0.356,-0.647L0.356,-0.166C0.356,-0.117 0.353,-0.081 0.346,-0.059C0.34,-0.037 0.326,-0.022 0.305,-0.013C0.284,-0.004 0.251,-0 0.206,-0L0.035,-0L0.035,-0.812ZM0.174,-0.706L0.174,-0.106L0.186,-0.106C0.2,-0.106 0.209,-0.109 0.212,-0.114C0.215,-0.12 0.217,-0.131 0.217,-0.149L0.217,-0.662C0.217,-0.675 0.216,-0.685 0.215,-0.69C0.214,-0.696 0.211,-0.7 0.207,-0.702C0.202,-0.705 0.195,-0.706 0.184,-0.706L0.174,-0.706Z" style="fill:white;fill-rule:nonzero;"/>
            </g>
            <g transform="matrix(513.441,0,0,513.441,1236.62,591.315)">
                <path d="M0.35,-0.655L0.35,-0.532L0.212,-0.532L0.212,-0.675C0.212,-0.687 0.21,-0.696 0.207,-0.701C0.203,-0.706 0.197,-0.709 0.189,-0.709C0.176,-0.709 0.169,-0.698 0.169,-0.675L0.169,-0.549C0.169,-0.535 0.171,-0.525 0.174,-0.519C0.178,-0.512 0.187,-0.505 0.2,-0.497L0.285,-0.448C0.302,-0.438 0.316,-0.428 0.325,-0.416C0.335,-0.403 0.342,-0.39 0.345,-0.376C0.348,-0.362 0.35,-0.345 0.35,-0.325L0.35,-0.156C0.35,-0.118 0.348,-0.089 0.345,-0.07C0.342,-0.05 0.335,-0.034 0.324,-0.023C0.313,-0.012 0.298,-0.004 0.277,-0C0.256,0.004 0.227,0.006 0.189,0.006C0.152,0.006 0.124,0.004 0.104,-0.001C0.083,-0.005 0.068,-0.013 0.057,-0.024C0.046,-0.035 0.038,-0.05 0.034,-0.071C0.031,-0.092 0.029,-0.12 0.029,-0.156L0.029,-0.335L0.169,-0.335L0.169,-0.137C0.169,-0.125 0.171,-0.116 0.174,-0.111C0.178,-0.105 0.184,-0.102 0.192,-0.102C0.205,-0.102 0.212,-0.114 0.212,-0.137L0.212,-0.309C0.212,-0.323 0.21,-0.333 0.207,-0.339C0.203,-0.345 0.194,-0.352 0.181,-0.36L0.092,-0.412C0.067,-0.426 0.051,-0.444 0.042,-0.463C0.033,-0.483 0.029,-0.508 0.029,-0.539L0.029,-0.655C0.029,-0.691 0.031,-0.719 0.035,-0.74C0.039,-0.761 0.046,-0.777 0.057,-0.788C0.068,-0.799 0.084,-0.807 0.104,-0.811C0.125,-0.815 0.153,-0.817 0.19,-0.817C0.239,-0.817 0.275,-0.813 0.296,-0.805C0.318,-0.797 0.333,-0.781 0.34,-0.76C0.347,-0.738 0.35,-0.703 0.35,-0.655Z" style="fill:white;fill-rule:nonzero;"/>
            </g>
        </g>
    </g>
</svg>
