<?xml version="1.0" encoding="UTF-8" standalone="no"?><!DOCTYPE svg PUBLIC "-//W3C//DTD SVG 1.1//EN" "http://www.w3.org/Graphics/SVG/1.1/DTD/svg11.dtd"><svg width="100%" height="100%" viewBox="0 0 805 805" version="1.1" xmlns="http://www.w3.org/2000/svg" xmlns:xlink="http://www.w3.org/1999/xlink" xml:space="preserve" xmlns:serif="http://www.serif.com/" style="fill-rule:evenodd;clip-rule:evenodd;stroke-linejoin:round;stroke-miterlimit:2;"><g><path d="M438.251,284.084l-23.834,60.34l-118.164,0l27.759,-70.276c4.467,-11.308 0.481,-16.963 -11.957,-16.963c-7.187,0 -12.497,1.373 -15.931,4.12c-3.435,2.746 -6.301,7.027 -8.598,12.843l-41.734,105.656c20.265,-10.016 43.803,-15.024 70.614,-15.024c59.98,-0 80.622,23.667 61.924,71.002l-37.235,94.267c-7.083,17.932 -14.022,31.826 -20.817,41.681c-6.795,9.854 -15.732,17.609 -26.81,23.263c-11.079,5.655 -25.857,9.653 -44.334,11.996c-18.477,2.342 -43.194,3.513 -74.152,3.513c-41.737,0 -71.275,-2.019 -88.614,-6.058c-17.338,-4.039 -27,-11.591 -28.986,-22.658c-1.987,-11.066 1.647,-28.312 10.9,-51.737l97.156,-245.965c9.38,-23.748 19.334,-41.075 29.861,-51.98c10.526,-10.905 26.054,-18.377 46.583,-22.415c20.529,-4.039 51.801,-6.059 93.815,-6.059c39.802,0 68.325,2.141 85.568,6.422c17.243,4.281 26.713,11.793 28.413,22.537c1.699,10.743 -2.11,27.908 -11.427,51.495Zm-180.095,156.787c4.467,-11.308 0.482,-16.963 -11.957,-16.963c-7.463,0 -12.81,1.293 -16.043,3.878c-3.232,2.584 -6.06,6.946 -8.485,13.085l-38.958,98.629c-2.298,5.816 -2.814,10.097 -1.549,12.843c1.264,2.747 5.49,4.12 12.676,4.12c7.463,-0 12.965,-1.333 16.506,-3.999c3.54,-2.665 6.491,-6.987 8.852,-12.964l38.958,-98.629Z" style="fill:#bee7ff;fill-rule:nonzero;"/><path d="M464.189,284.084c7.339,-18.579 14.304,-32.715 20.897,-42.408c6.593,-9.693 15.583,-17.407 26.97,-23.142c11.387,-5.736 26.063,-9.653 44.03,-11.753c17.967,-2.101 43.258,-3.151 75.874,-3.151c42.014,0 71.393,1.899 88.136,5.695c16.743,3.797 26.108,11.228 28.094,22.294c1.986,11.067 -1.743,28.555 -11.187,52.465l-97.156,245.965c-9.445,23.91 -19.345,41.277 -29.702,52.101c-10.356,10.824 -25.592,18.255 -45.706,22.294c-20.115,4.039 -50.626,6.058 -91.534,6.058c-42.014,0 -71.531,-1.898 -88.551,-5.694c-17.019,-3.797 -26.522,-11.228 -28.508,-22.295c-1.986,-11.066 1.743,-28.554 11.187,-52.464l97.156,-245.965Zm121.068,-9.451l-104.622,264.867c-2.361,5.977 -2.617,10.299 -0.768,12.964c1.849,2.666 6.367,3.999 13.554,3.999c6.634,-0 11.79,-1.333 15.469,-3.999c3.679,-2.665 6.698,-6.987 9.06,-12.964l104.622,-264.867c2.489,-6.301 2.877,-10.784 1.166,-13.449c-1.711,-2.666 -6.298,-3.999 -13.761,-3.999c-6.357,0 -11.492,1.454 -15.405,4.362c-3.913,2.908 -7.018,7.27 -9.315,13.086Z" style="fill:#bee7ff;fill-rule:nonzero;"/><path d="M431.251,278.084l-23.834,60.34l-118.164,0l27.759,-70.276c4.467,-11.308 0.481,-16.963 -11.957,-16.963c-7.187,0 -12.497,1.373 -15.931,4.12c-3.435,2.746 -6.301,7.027 -8.598,12.843l-41.734,105.656c20.265,-10.016 43.803,-15.024 70.614,-15.024c59.98,-0 80.622,23.667 61.924,71.002l-37.235,94.267c-7.083,17.932 -14.022,31.826 -20.817,41.681c-6.795,9.854 -15.732,17.609 -26.81,23.263c-11.079,5.655 -25.857,9.653 -44.334,11.996c-18.477,2.342 -43.194,3.513 -74.152,3.513c-41.737,0 -71.275,-2.019 -88.614,-6.058c-17.338,-4.039 -27,-11.591 -28.986,-22.658c-1.987,-11.066 1.647,-28.312 10.9,-51.737l97.156,-245.965c9.38,-23.748 19.334,-41.075 29.861,-51.98c10.526,-10.905 26.054,-18.377 46.583,-22.415c20.529,-4.039 51.801,-6.059 93.815,-6.059c39.802,0 68.325,2.141 85.568,6.422c17.243,4.281 26.713,11.793 28.413,22.537c1.699,10.743 -2.11,27.908 -11.427,51.495Zm-180.095,156.787c4.467,-11.308 0.482,-16.963 -11.957,-16.963c-7.463,0 -12.81,1.293 -16.043,3.878c-3.232,2.584 -6.06,6.946 -8.485,13.085l-38.958,98.629c-2.298,5.816 -2.814,10.097 -1.549,12.843c1.264,2.747 5.49,4.12 12.676,4.12c7.463,-0 12.965,-1.333 16.506,-3.999c3.54,-2.665 6.491,-6.987 8.852,-12.964l38.958,-98.629Z" style="fill:#e3272d;fill-rule:nonzero;"/><path d="M457.189,278.084c7.339,-18.579 14.304,-32.715 20.897,-42.408c6.593,-9.693 15.583,-17.407 26.97,-23.142c11.387,-5.736 26.063,-9.653 44.03,-11.753c17.967,-2.101 43.258,-3.151 75.874,-3.151c42.014,0 71.393,1.899 88.136,5.695c16.743,3.797 26.108,11.228 28.094,22.294c1.986,11.067 -1.743,28.555 -11.187,52.465l-97.156,245.965c-9.445,23.91 -19.345,41.277 -29.702,52.101c-10.356,10.824 -25.592,18.255 -45.706,22.294c-20.115,4.039 -50.626,6.058 -91.534,6.058c-42.014,0 -71.531,-1.898 -88.551,-5.694c-17.019,-3.797 -26.522,-11.228 -28.508,-22.295c-1.986,-11.066 1.743,-28.554 11.187,-52.464l97.156,-245.965Zm121.068,-9.451l-104.622,264.867c-2.361,5.977 -2.617,10.299 -0.768,12.964c1.849,2.666 6.367,3.999 13.554,3.999c6.634,-0 11.79,-1.333 15.469,-3.999c3.679,-2.665 6.698,-6.987 9.06,-12.964l104.622,-264.867c2.489,-6.301 2.877,-10.784 1.166,-13.449c-1.711,-2.666 -6.298,-3.999 -13.761,-3.999c-6.357,0 -11.492,1.454 -15.405,4.362c-3.913,2.908 -7.018,7.27 -9.315,13.086Z" style="fill:#e3272d;fill-rule:nonzero;"/><path d="M190.29,52.152l51.031,0l-29.152,131.22l-37.26,0l8.198,-27.932l-15.93,-0l-13.869,27.932l-36.99,0l73.972,-131.22Zm14.825,26.039l-29.7,59.811l12.96,-0l17.82,-59.811l-1.08,0Z" style="fill:#bee7ff;fill-rule:nonzero;"/><path d="M270.962,52.152l38.34,0l-45.006,113.94l22.951,-0l-6.826,17.28l-61.291,0l51.832,-131.22Z" style="fill:#bee7ff;fill-rule:nonzero;"/><path d="M337.593,52.152l38.341,0l-45.006,113.94l22.95,-0l-6.825,17.28l-61.291,0l51.831,-131.22Z" style="fill:#bee7ff;fill-rule:nonzero;"/><path d="M448.716,52.152l38.341,0l-51.832,131.22l-38.34,0l51.831,-131.22Z" style="fill:#bee7ff;fill-rule:nonzero;"/><path d="M498.203,52.152l34.29,0l-4.912,65.413l1.755,0l25.163,-65.413l33.21,0l-51.832,131.22l-34.02,0l5.359,-67.227l-1.755,-0l-25.745,67.227l-33.345,0l51.832,-131.22Z" style="fill:#bee7ff;fill-rule:nonzero;"/><path d="M185.29,48.152l51.031,0l-29.152,131.22l-37.26,0l8.198,-27.932l-15.93,-0l-13.869,27.932l-36.99,0l73.972,-131.22Zm14.825,26.039l-29.7,59.811l12.96,-0l17.82,-59.811l-1.08,0Z" style="fill:#fff;fill-rule:nonzero;"/><path d="M265.962,48.152l38.34,0l-45.006,113.94l22.951,-0l-6.826,17.28l-61.291,0l51.832,-131.22Z" style="fill:#fff;fill-rule:nonzero;"/><path d="M332.593,48.152l38.341,0l-45.006,113.94l22.95,-0l-6.825,17.28l-61.291,0l51.831,-131.22Z" style="fill:#fff;fill-rule:nonzero;"/><path d="M443.716,48.152l38.341,0l-51.832,131.22l-38.34,0l51.831,-131.22Z" style="fill:#fff;fill-rule:nonzero;"/><path d="M493.203,48.152l34.29,0l-4.912,65.413l1.755,0l25.163,-65.413l33.21,0l-51.832,131.22l-34.02,0l5.359,-67.227l-1.755,-0l-25.745,67.227l-33.345,0l51.832,-131.22Z" style="fill:#fff;fill-rule:nonzero;"/><path d="M193.137,654.276l-7.823,19.805l-38.206,0l9.101,-23.04c0.79,-1.999 0.856,-3.419 0.198,-4.261c-0.657,-0.842 -2.111,-1.263 -4.361,-1.263c-3.69,0 -6.262,1.842 -7.717,5.524l-8.041,20.357c-0.852,2.157 -0.996,3.775 -0.432,4.853c0.564,1.079 2.487,2.249 5.768,3.511l20.374,7.891c4.147,1.578 7.163,3.34 9.049,5.287c1.887,1.946 2.856,4.05 2.907,6.312c0.052,2.262 -0.567,5.024 -1.855,8.285l-10.815,27.38c-2.411,6.103 -4.694,10.745 -6.851,13.927c-2.157,3.183 -5.079,5.682 -8.766,7.496c-3.687,1.815 -8.518,3.051 -14.493,3.709c-5.975,0.657 -14.227,0.986 -24.757,0.986c-10.171,0 -17.905,-0.355 -23.205,-1.065c-5.3,-0.71 -9.131,-1.946 -11.495,-3.709c-2.364,-1.762 -3.404,-4.313 -3.12,-7.653c0.285,-3.341 1.57,-7.904 3.855,-13.691l11.439,-28.958l38.746,0l-12.623,31.957c-0.769,1.946 -0.84,3.38 -0.214,4.3c0.626,0.921 2.065,1.381 4.315,1.381c3.69,0 6.283,-1.894 7.779,-5.681l10.971,-27.775c0.873,-2.209 1.016,-3.827 0.432,-4.853c-0.585,-1.025 -2.484,-2.143 -5.696,-3.353l-21.37,-8.443c-5.836,-2.315 -9.335,-5.076 -10.498,-8.285c-1.162,-3.209 -0.767,-7.286 1.186,-12.23l7.387,-18.701c2.285,-5.786 4.666,-10.389 7.142,-13.809c2.475,-3.419 5.569,-6.01 9.28,-7.772c3.711,-1.762 8.509,-2.972 14.394,-3.629c5.885,-0.658 13.912,-0.987 24.082,-0.987c13.59,0 23.141,0.658 28.651,1.973c5.511,1.315 8.533,3.748 9.065,7.299c0.533,3.55 -0.728,9.192 -3.783,16.925Z" style="fill:#bee7ff;fill-rule:nonzero;"/><path d="M213.104,628.868l61.291,0l-6.764,17.123l-22.95,-0l-13.215,33.456l22.95,-0l-6.825,17.28l-22.951,0l-18.202,46.081l22.951,0l-6.826,17.28l-61.291,0l51.832,-131.22Z" style="fill:#bee7ff;fill-rule:nonzero;"/><path d="M362.041,654.276l-7.636,19.332l-38.476,-0l8.852,-22.409c0.81,-2.052 0.937,-3.512 0.38,-4.38c-0.558,-0.868 -2.051,-1.302 -4.481,-1.302c-2.07,0 -3.742,0.474 -5.016,1.421c-1.274,0.947 -2.285,2.367 -3.033,4.261l-34.254,86.717c-0.768,1.946 -0.829,3.353 -0.182,4.221c0.647,0.868 2.096,1.302 4.346,1.302c2.16,0 3.839,-0.434 5.037,-1.302c1.197,-0.868 2.181,-2.275 2.95,-4.221l13.215,-33.456l38.475,-0l-11.937,30.221c-3.075,7.785 -6.309,13.466 -9.702,17.043c-3.393,3.577 -8.364,6.023 -14.914,7.339c-6.55,1.315 -16.484,1.972 -29.805,1.972c-13.68,0 -23.286,-0.631 -28.817,-1.894c-5.531,-1.262 -8.615,-3.708 -9.252,-7.338c-0.636,-3.629 0.583,-9.337 3.659,-17.122l31.76,-80.405c2.41,-6.102 4.721,-10.758 6.934,-13.966c2.212,-3.209 5.139,-5.721 8.781,-7.536c3.642,-1.815 8.428,-3.051 14.358,-3.708c5.93,-0.658 14.115,-0.987 24.555,-0.987c13.59,0 23.134,0.618 28.63,1.855c5.497,1.236 8.574,3.642 9.231,7.219c0.657,3.577 -0.562,9.285 -3.658,17.123Z" style="fill:#bee7ff;fill-rule:nonzero;"/><path d="M369.137,654.276c2.41,-6.102 4.721,-10.758 6.934,-13.966c2.212,-3.209 5.14,-5.721 8.781,-7.536c3.642,-1.815 8.428,-3.051 14.358,-3.708c5.93,-0.658 14.115,-0.987 24.555,-0.987c13.59,0 23.134,0.618 28.63,1.855c5.497,1.236 8.574,3.642 9.231,7.219c0.657,3.577 -0.562,9.285 -3.658,17.123l-31.76,80.405c-3.075,7.785 -6.309,13.466 -9.702,17.043c-3.393,3.577 -8.364,6.023 -14.914,7.339c-6.549,1.315 -16.484,1.972 -29.805,1.972c-13.68,0 -23.286,-0.631 -28.817,-1.894c-5.531,-1.262 -8.615,-3.708 -9.252,-7.338c-0.636,-3.629 0.584,-9.337 3.659,-17.122l31.76,-80.405Zm39.421,-3.077l-34.254,86.717c-0.768,1.946 -0.829,3.353 -0.182,4.221c0.647,0.868 2.096,1.302 4.346,1.302c2.16,0 3.839,-0.434 5.037,-1.302c1.198,-0.868 2.181,-2.275 2.95,-4.221l34.253,-86.717c0.81,-2.052 0.937,-3.512 0.38,-4.38c-0.557,-0.868 -2.051,-1.302 -4.481,-1.302c-2.07,0 -3.742,0.474 -5.016,1.421c-1.274,0.947 -2.285,2.367 -3.033,4.261Z" style="fill:#bee7ff;fill-rule:nonzero;"/><path d="M477.665,628.868l34.29,0l-4.912,65.413l1.755,0l25.163,-65.413l33.21,0l-51.832,131.22l-34.02,0l5.359,-67.227l-1.755,-0l-25.745,67.227l-33.345,0l51.832,-131.22Z" style="fill:#bee7ff;fill-rule:nonzero;"/><path d="M578.587,628.868l46.981,0c12.78,0 21.712,0.684 26.797,2.052c5.085,1.368 7.866,3.84 8.343,7.417c0.477,3.577 -0.843,9.311 -3.959,17.201l-30.701,77.722c-3.158,7.996 -6.338,13.769 -9.541,17.32c-3.203,3.551 -7.982,6.023 -14.337,7.417c-6.356,1.394 -15.744,2.091 -28.164,2.091l-47.251,0l51.832,-131.22Zm31.577,17.123l-38.305,96.975l3.375,-0c3.87,-0 6.432,-0.447 7.685,-1.342c1.253,-0.894 2.441,-2.761 3.563,-5.602l32.757,-82.93c0.852,-2.156 1.292,-3.669 1.32,-4.537c0.028,-0.868 -0.483,-1.512 -1.532,-1.933c-1.048,-0.421 -3.058,-0.631 -6.028,-0.631l-2.835,-0Z" style="fill:#bee7ff;fill-rule:nonzero;"/><path d="M754.389,654.276l-7.823,19.805l-38.205,0l9.101,-23.04c0.789,-1.999 0.855,-3.419 0.198,-4.261c-0.658,-0.842 -2.112,-1.263 -4.362,-1.263c-3.69,0 -6.262,1.842 -7.717,5.524l-8.041,20.357c-0.852,2.157 -0.996,3.775 -0.432,4.853c0.564,1.079 2.487,2.249 5.769,3.511l20.373,7.891c4.147,1.578 7.163,3.34 9.05,5.287c1.886,1.946 2.855,4.05 2.906,6.312c0.052,2.262 -0.567,5.024 -1.855,8.285l-10.815,27.38c-2.41,6.103 -4.694,10.745 -6.851,13.927c-2.157,3.183 -5.079,5.682 -8.766,7.496c-3.687,1.815 -8.518,3.051 -14.493,3.709c-5.975,0.657 -14.227,0.986 -24.757,0.986c-10.17,0 -17.905,-0.355 -23.205,-1.065c-5.299,-0.71 -9.131,-1.946 -11.495,-3.709c-2.364,-1.762 -3.404,-4.313 -3.119,-7.653c0.284,-3.341 1.569,-7.904 3.855,-13.691l11.438,-28.958l38.746,0l-12.623,31.957c-0.769,1.946 -0.84,3.38 -0.214,4.3c0.627,0.921 2.065,1.381 4.315,1.381c3.69,0 6.283,-1.894 7.779,-5.681l10.971,-27.775c0.873,-2.209 1.017,-3.827 0.432,-4.853c-0.585,-1.025 -2.484,-2.143 -5.696,-3.353l-21.37,-8.443c-5.836,-2.315 -9.335,-5.076 -10.498,-8.285c-1.162,-3.209 -0.767,-7.286 1.186,-12.23l7.387,-18.701c2.286,-5.786 4.666,-10.389 7.142,-13.809c2.475,-3.419 5.569,-6.01 9.28,-7.772c3.711,-1.762 8.509,-2.972 14.394,-3.629c5.885,-0.658 13.912,-0.987 24.082,-0.987c13.591,0 23.141,0.658 28.652,1.973c5.51,1.315 8.532,3.748 9.064,7.299c0.533,3.55 -0.728,9.192 -3.783,16.925Z" style="fill:#bee7ff;fill-rule:nonzero;"/><path d="M188.137,650.276l-7.823,19.805l-38.206,0l9.101,-23.04c0.79,-1.999 0.856,-3.419 0.198,-4.261c-0.657,-0.842 -2.111,-1.263 -4.361,-1.263c-3.69,0 -6.262,1.842 -7.717,5.524l-8.041,20.357c-0.852,2.157 -0.996,3.775 -0.432,4.853c0.564,1.079 2.487,2.249 5.768,3.511l20.374,7.891c4.147,1.578 7.163,3.34 9.049,5.287c1.887,1.946 2.856,4.05 2.907,6.312c0.052,2.262 -0.567,5.024 -1.855,8.285l-10.815,27.38c-2.411,6.103 -4.694,10.745 -6.851,13.927c-2.157,3.183 -5.079,5.682 -8.766,7.496c-3.687,1.815 -8.518,3.051 -14.493,3.709c-5.975,0.657 -14.227,0.986 -24.757,0.986c-10.171,0 -17.905,-0.355 -23.205,-1.065c-5.3,-0.71 -9.131,-1.946 -11.495,-3.709c-2.364,-1.762 -3.404,-4.313 -3.12,-7.653c0.285,-3.341 1.57,-7.904 3.855,-13.691l11.439,-28.958l38.746,0l-12.623,31.957c-0.769,1.946 -0.84,3.38 -0.214,4.3c0.626,0.921 2.065,1.381 4.315,1.381c3.69,0 6.283,-1.894 7.779,-5.681l10.971,-27.775c0.873,-2.209 1.016,-3.827 0.432,-4.853c-0.585,-1.025 -2.484,-2.143 -5.696,-3.353l-21.37,-8.443c-5.836,-2.315 -9.335,-5.076 -10.498,-8.285c-1.162,-3.209 -0.767,-7.286 1.186,-12.23l7.387,-18.701c2.285,-5.786 4.666,-10.389 7.142,-13.809c2.475,-3.419 5.569,-6.01 9.28,-7.772c3.711,-1.762 8.509,-2.972 14.394,-3.629c5.885,-0.658 13.912,-0.987 24.082,-0.987c13.59,0 23.141,0.658 28.651,1.973c5.511,1.315 8.533,3.748 9.065,7.299c0.533,3.55 -0.728,9.192 -3.783,16.925Z" style="fill:#fff;fill-rule:nonzero;"/><path d="M208.104,624.868l61.291,0l-6.764,17.123l-22.95,-0l-13.215,33.456l22.95,-0l-6.825,17.28l-22.951,0l-18.202,46.081l22.951,0l-6.826,17.28l-61.291,0l51.832,-131.22Z" style="fill:#fff;fill-rule:nonzero;"/><path d="M357.041,650.276l-7.636,19.332l-38.476,-0l8.852,-22.409c0.81,-2.052 0.937,-3.512 0.38,-4.38c-0.558,-0.868 -2.051,-1.302 -4.481,-1.302c-2.07,0 -3.742,0.474 -5.016,1.421c-1.274,0.947 -2.285,2.367 -3.033,4.261l-34.254,86.717c-0.768,1.946 -0.829,3.353 -0.182,4.221c0.647,0.868 2.096,1.302 4.346,1.302c2.16,0 3.839,-0.434 5.037,-1.302c1.197,-0.868 2.181,-2.275 2.95,-4.221l13.215,-33.456l38.475,-0l-11.937,30.221c-3.075,7.785 -6.309,13.466 -9.702,17.043c-3.393,3.577 -8.364,6.023 -14.914,7.339c-6.55,1.315 -16.484,1.972 -29.805,1.972c-13.68,0 -23.286,-0.631 -28.817,-1.894c-5.531,-1.262 -8.615,-3.708 -9.252,-7.338c-0.636,-3.629 0.583,-9.337 3.659,-17.122l31.76,-80.405c2.41,-6.102 4.721,-10.758 6.934,-13.966c2.212,-3.209 5.139,-5.721 8.781,-7.536c3.642,-1.815 8.428,-3.051 14.358,-3.708c5.93,-0.658 14.115,-0.987 24.555,-0.987c13.59,0 23.134,0.618 28.63,1.855c5.497,1.236 8.574,3.642 9.231,7.219c0.657,3.577 -0.562,9.285 -3.658,17.123Z" style="fill:#fff;fill-rule:nonzero;"/><path d="M364.137,650.276c2.41,-6.102 4.721,-10.758 6.934,-13.966c2.212,-3.209 5.14,-5.721 8.781,-7.536c3.642,-1.815 8.428,-3.051 14.358,-3.708c5.93,-0.658 14.115,-0.987 24.555,-0.987c13.59,0 23.134,0.618 28.63,1.855c5.497,1.236 8.574,3.642 9.231,7.219c0.657,3.577 -0.562,9.285 -3.658,17.123l-31.76,80.405c-3.075,7.785 -6.309,13.466 -9.702,17.043c-3.393,3.577 -8.364,6.023 -14.914,7.339c-6.549,1.315 -16.484,1.972 -29.805,1.972c-13.68,0 -23.286,-0.631 -28.817,-1.894c-5.531,-1.262 -8.615,-3.708 -9.252,-7.338c-0.636,-3.629 0.584,-9.337 3.659,-17.122l31.76,-80.405Zm39.421,-3.077l-34.254,86.717c-0.768,1.946 -0.829,3.353 -0.182,4.221c0.647,0.868 2.096,1.302 4.346,1.302c2.16,0 3.839,-0.434 5.037,-1.302c1.198,-0.868 2.181,-2.275 2.95,-4.221l34.253,-86.717c0.81,-2.052 0.937,-3.512 0.38,-4.38c-0.557,-0.868 -2.051,-1.302 -4.481,-1.302c-2.07,0 -3.742,0.474 -5.016,1.421c-1.274,0.947 -2.285,2.367 -3.033,4.261Z" style="fill:#fff;fill-rule:nonzero;"/><path d="M472.665,624.868l34.29,0l-4.912,65.413l1.755,0l25.163,-65.413l33.21,0l-51.832,131.22l-34.02,0l5.359,-67.227l-1.755,-0l-25.745,67.227l-33.345,0l51.832,-131.22Z" style="fill:#fff;fill-rule:nonzero;"/><path d="M573.587,624.868l46.981,0c12.78,0 21.712,0.684 26.797,2.052c5.085,1.368 7.866,3.84 8.343,7.417c0.477,3.577 -0.843,9.311 -3.959,17.201l-30.701,77.722c-3.158,7.996 -6.338,13.769 -9.541,17.32c-3.203,3.551 -7.982,6.023 -14.337,7.417c-6.356,1.394 -15.744,2.091 -28.164,2.091l-47.251,0l51.832,-131.22Zm31.577,17.123l-38.305,96.975l3.375,-0c3.87,-0 6.432,-0.447 7.685,-1.342c1.253,-0.894 2.441,-2.761 3.563,-5.602l32.757,-82.93c0.852,-2.156 1.292,-3.669 1.32,-4.537c0.028,-0.868 -0.483,-1.512 -1.532,-1.933c-1.048,-0.421 -3.058,-0.631 -6.028,-0.631l-2.835,-0Z" style="fill:#fff;fill-rule:nonzero;"/><path d="M749.389,650.276l-7.823,19.805l-38.205,0l9.101,-23.04c0.789,-1.999 0.855,-3.419 0.198,-4.261c-0.658,-0.842 -2.112,-1.263 -4.362,-1.263c-3.69,0 -6.262,1.842 -7.717,5.524l-8.041,20.357c-0.852,2.157 -0.996,3.775 -0.432,4.853c0.564,1.079 2.487,2.249 5.769,3.511l20.373,7.891c4.147,1.578 7.163,3.34 9.05,5.287c1.886,1.946 2.855,4.05 2.906,6.312c0.052,2.262 -0.567,5.024 -1.855,8.285l-10.815,27.38c-2.41,6.103 -4.694,10.745 -6.851,13.927c-2.157,3.183 -5.079,5.682 -8.766,7.496c-3.687,1.815 -8.518,3.051 -14.493,3.709c-5.975,0.657 -14.227,0.986 -24.757,0.986c-10.17,0 -17.905,-0.355 -23.205,-1.065c-5.299,-0.71 -9.131,-1.946 -11.495,-3.709c-2.364,-1.762 -3.404,-4.313 -3.119,-7.653c0.284,-3.341 1.569,-7.904 3.855,-13.691l11.438,-28.958l38.746,0l-12.623,31.957c-0.769,1.946 -0.84,3.38 -0.214,4.3c0.627,0.921 2.065,1.381 4.315,1.381c3.69,0 6.283,-1.894 7.779,-5.681l10.971,-27.775c0.873,-2.209 1.017,-3.827 0.432,-4.853c-0.585,-1.025 -2.484,-2.143 -5.696,-3.353l-21.37,-8.443c-5.836,-2.315 -9.335,-5.076 -10.498,-8.285c-1.162,-3.209 -0.767,-7.286 1.186,-12.23l7.387,-18.701c2.286,-5.786 4.666,-10.389 7.142,-13.809c2.475,-3.419 5.569,-6.01 9.28,-7.772c3.711,-1.762 8.509,-2.972 14.394,-3.629c5.885,-0.658 13.912,-0.987 24.082,-0.987c13.591,0 23.141,0.658 28.652,1.973c5.51,1.315 8.532,3.748 9.064,7.299c0.533,3.55 -0.728,9.192 -3.783,16.925Z" style="fill:#fff;fill-rule:nonzero;"/></g></svg>